<mxfile host="app.diagrams.net" modified="2022-06-12T15:49:35.723Z" agent="5.0 (Macintosh; Intel Mac OS X 10_15_7) AppleWebKit/537.36 (KHTML, like Gecko) Chrome/102.0.5005.115 Safari/537.36" etag="Q8866px6AEiYlg2wZDuT" version="19.0.3" type="github">
  <diagram id="oXXuH79zhM493yi85AKK" name="Page-1">
    <mxGraphModel dx="1234" dy="698" grid="1" gridSize="10" guides="1" tooltips="1" connect="1" arrows="1" fold="1" page="1" pageScale="1" pageWidth="827" pageHeight="1169" math="0" shadow="0">
      <root>
        <mxCell id="0" />
        <mxCell id="1" parent="0" />
        <mxCell id="cvLjw8mkBtmj3vspAxVs-22" value="" style="rounded=1;whiteSpace=wrap;html=1;" vertex="1" parent="1">
          <mxGeometry x="140" y="230" width="180" height="183" as="geometry" />
        </mxCell>
        <mxCell id="cvLjw8mkBtmj3vspAxVs-21" value="" style="rounded=1;whiteSpace=wrap;html=1;" vertex="1" parent="1">
          <mxGeometry x="140" y="23.5" width="180" height="183" as="geometry" />
        </mxCell>
        <mxCell id="cvLjw8mkBtmj3vspAxVs-1" value="order" style="rounded=1;whiteSpace=wrap;html=1;" vertex="1" parent="1">
          <mxGeometry x="170" y="137" width="120" height="60" as="geometry" />
        </mxCell>
        <mxCell id="cvLjw8mkBtmj3vspAxVs-5" value="loan" style="rounded=1;whiteSpace=wrap;html=1;" vertex="1" parent="1">
          <mxGeometry x="170" y="30" width="120" height="60" as="geometry" />
        </mxCell>
        <mxCell id="cvLjw8mkBtmj3vspAxVs-12" value="extract" style="text;html=1;strokeColor=none;fillColor=none;align=center;verticalAlign=middle;whiteSpace=wrap;rounded=0;" vertex="1" parent="1">
          <mxGeometry x="170.00000000000003" y="100" width="60" height="30" as="geometry" />
        </mxCell>
        <mxCell id="cvLjw8mkBtmj3vspAxVs-13" value="plan" style="rounded=1;whiteSpace=wrap;html=1;" vertex="1" parent="1">
          <mxGeometry x="170" y="250" width="120" height="60" as="geometry" />
        </mxCell>
        <mxCell id="cvLjw8mkBtmj3vspAxVs-15" value="bill" style="rounded=1;whiteSpace=wrap;html=1;" vertex="1" parent="1">
          <mxGeometry x="170" y="341" width="120" height="60" as="geometry" />
        </mxCell>
        <mxCell id="cvLjw8mkBtmj3vspAxVs-17" value="" style="shape=singleArrow;direction=north;whiteSpace=wrap;html=1;" vertex="1" parent="1">
          <mxGeometry x="230" y="107" width="18" height="30" as="geometry" />
        </mxCell>
        <mxCell id="cvLjw8mkBtmj3vspAxVs-24" value="" style="shape=doubleArrow;direction=south;whiteSpace=wrap;html=1;" vertex="1" parent="1">
          <mxGeometry x="221" y="310" width="18" height="30" as="geometry" />
        </mxCell>
        <mxCell id="cvLjw8mkBtmj3vspAxVs-25" value="associate" style="text;html=1;strokeColor=none;fillColor=none;align=center;verticalAlign=middle;whiteSpace=wrap;rounded=0;" vertex="1" parent="1">
          <mxGeometry x="161.00000000000003" y="306.5" width="60" height="30" as="geometry" />
        </mxCell>
        <mxCell id="cvLjw8mkBtmj3vspAxVs-26" value="" style="rounded=1;whiteSpace=wrap;html=1;" vertex="1" parent="1">
          <mxGeometry x="450" y="228.75" width="180" height="183" as="geometry" />
        </mxCell>
        <mxCell id="cvLjw8mkBtmj3vspAxVs-27" value="" style="rounded=1;whiteSpace=wrap;html=1;" vertex="1" parent="1">
          <mxGeometry x="450" y="22.25" width="180" height="183" as="geometry" />
        </mxCell>
        <mxCell id="cvLjw8mkBtmj3vspAxVs-28" value="order" style="rounded=1;whiteSpace=wrap;html=1;" vertex="1" parent="1">
          <mxGeometry x="480" y="135.75" width="120" height="60" as="geometry" />
        </mxCell>
        <mxCell id="cvLjw8mkBtmj3vspAxVs-29" value="loan" style="rounded=1;whiteSpace=wrap;html=1;" vertex="1" parent="1">
          <mxGeometry x="480" y="28.75" width="120" height="60" as="geometry" />
        </mxCell>
        <mxCell id="cvLjw8mkBtmj3vspAxVs-31" value="plan" style="rounded=1;whiteSpace=wrap;html=1;" vertex="1" parent="1">
          <mxGeometry x="480" y="240.75" width="120" height="60" as="geometry" />
        </mxCell>
        <mxCell id="cvLjw8mkBtmj3vspAxVs-32" value="bill" style="rounded=1;whiteSpace=wrap;html=1;" vertex="1" parent="1">
          <mxGeometry x="480" y="339.75" width="120" height="60" as="geometry" />
        </mxCell>
        <mxCell id="cvLjw8mkBtmj3vspAxVs-34" value="" style="shape=doubleArrow;direction=south;whiteSpace=wrap;html=1;" vertex="1" parent="1">
          <mxGeometry x="531" y="307.75" width="18" height="30" as="geometry" />
        </mxCell>
        <mxCell id="cvLjw8mkBtmj3vspAxVs-35" value="decoupling" style="text;html=1;strokeColor=none;fillColor=none;align=center;verticalAlign=middle;whiteSpace=wrap;rounded=0;" vertex="1" parent="1">
          <mxGeometry x="471" y="305.25" width="60" height="30" as="geometry" />
        </mxCell>
        <mxCell id="cvLjw8mkBtmj3vspAxVs-36" value="" style="shape=singleArrow;whiteSpace=wrap;html=1;" vertex="1" parent="1">
          <mxGeometry x="350" y="206.5" width="70" height="40" as="geometry" />
        </mxCell>
        <mxCell id="cvLjw8mkBtmj3vspAxVs-37" value="decoupling" style="text;html=1;strokeColor=none;fillColor=none;align=center;verticalAlign=middle;whiteSpace=wrap;rounded=0;" vertex="1" parent="1">
          <mxGeometry x="510" y="98.75" width="60" height="30" as="geometry" />
        </mxCell>
      </root>
    </mxGraphModel>
  </diagram>
</mxfile>
